<mxfile host="app.diagrams.net" modified="2021-05-11T15:48:31.135Z" agent="5.0 (X11)" etag="faqPbkohYI_EHubg1l-n" version="14.6.9" type="github">
  <diagram id="ek3e64VqtC3SeL2O1fIu" name="Page-1">
    <mxGraphModel dx="1355" dy="804" grid="1" gridSize="10" guides="1" tooltips="1" connect="1" arrows="1" fold="1" page="1" pageScale="1" pageWidth="827" pageHeight="1169" math="0" shadow="0">
      <root>
        <mxCell id="0" />
        <mxCell id="1" parent="0" />
        <mxCell id="BdgKqPEwnkstZ0_iGE3u-2" value="Reconfiguration Path" style="text;html=1;align=center;verticalAlign=middle;resizable=0;points=[];autosize=1;fontSize=18;" vertex="1" parent="1">
          <mxGeometry x="20" y="750" width="180" height="30" as="geometry" />
        </mxCell>
        <mxCell id="BdgKqPEwnkstZ0_iGE3u-4" value="" style="endArrow=open;startArrow=circle;endFill=0;startFill=1;endSize=8;html=1;strokeWidth=4;fontSize=18;dashed=1;" edge="1" parent="1">
          <mxGeometry width="160" relative="1" as="geometry">
            <mxPoint x="361" y="766.8400000000001" as="sourcePoint" />
            <mxPoint x="490" y="767" as="targetPoint" />
          </mxGeometry>
        </mxCell>
        <mxCell id="BdgKqPEwnkstZ0_iGE3u-5" value="" style="endArrow=open;startArrow=circle;endFill=0;startFill=1;endSize=8;html=1;strokeWidth=4;fontSize=18;" edge="1" parent="1">
          <mxGeometry width="160" relative="1" as="geometry">
            <mxPoint x="487" y="766.8400000000001" as="sourcePoint" />
            <mxPoint x="620" y="767" as="targetPoint" />
          </mxGeometry>
        </mxCell>
        <mxCell id="BdgKqPEwnkstZ0_iGE3u-6" value="" style="endArrow=open;startArrow=circle;endFill=0;startFill=1;endSize=8;html=1;strokeWidth=4;fontSize=18;" edge="1" parent="1">
          <mxGeometry width="160" relative="1" as="geometry">
            <mxPoint x="622.5" y="766.8400000000001" as="sourcePoint" />
            <mxPoint x="742.5" y="766.6700000000001" as="targetPoint" />
          </mxGeometry>
        </mxCell>
        <mxCell id="BdgKqPEwnkstZ0_iGE3u-7" value="" style="endArrow=none;startArrow=circle;endFill=0;startFill=1;endSize=8;html=1;strokeWidth=4;fontSize=18;" edge="1" parent="1">
          <mxGeometry width="160" relative="1" as="geometry">
            <mxPoint x="745" y="766.9200000000001" as="sourcePoint" />
            <mxPoint x="765" y="766.5799999999999" as="targetPoint" />
          </mxGeometry>
        </mxCell>
        <mxCell id="BdgKqPEwnkstZ0_iGE3u-10" value="" style="endArrow=open;startArrow=circle;endFill=0;startFill=1;endSize=8;html=1;strokeWidth=4;fontSize=18;" edge="1" parent="1">
          <mxGeometry width="160" relative="1" as="geometry">
            <mxPoint x="221.5" y="766.8400000000001" as="sourcePoint" />
            <mxPoint x="360" y="767" as="targetPoint" />
          </mxGeometry>
        </mxCell>
        <mxCell id="BdgKqPEwnkstZ0_iGE3u-11" value="join" style="text;html=1;align=center;verticalAlign=middle;resizable=0;points=[];autosize=1;fontSize=18;" vertex="1" parent="1">
          <mxGeometry x="280" y="727.5" width="40" height="30" as="geometry" />
        </mxCell>
        <mxCell id="BdgKqPEwnkstZ0_iGE3u-12" value="quit" style="text;html=1;align=center;verticalAlign=middle;resizable=0;points=[];autosize=1;fontSize=18;" vertex="1" parent="1">
          <mxGeometry x="540" y="727.5" width="40" height="30" as="geometry" />
        </mxCell>
        <mxCell id="BdgKqPEwnkstZ0_iGE3u-15" value="run" style="text;html=1;align=center;verticalAlign=middle;resizable=0;points=[];autosize=1;fontSize=18;" vertex="1" parent="1">
          <mxGeometry x="670" y="727.5" width="40" height="30" as="geometry" />
        </mxCell>
        <mxCell id="BdgKqPEwnkstZ0_iGE3u-19" value="Si" style="text;html=1;align=center;verticalAlign=middle;resizable=0;points=[];autosize=1;fontSize=18;" vertex="1" parent="1">
          <mxGeometry x="482" y="782.5" width="30" height="30" as="geometry" />
        </mxCell>
        <mxCell id="BdgKqPEwnkstZ0_iGE3u-20" value="Si+1" style="text;html=1;align=center;verticalAlign=middle;resizable=0;points=[];autosize=1;fontSize=18;" vertex="1" parent="1">
          <mxGeometry x="610" y="782.5" width="50" height="30" as="geometry" />
        </mxCell>
        <mxCell id="BdgKqPEwnkstZ0_iGE3u-21" value="S0" style="text;html=1;align=center;verticalAlign=middle;resizable=0;points=[];autosize=1;fontSize=18;" vertex="1" parent="1">
          <mxGeometry x="210" y="782.5" width="40" height="30" as="geometry" />
        </mxCell>
        <mxCell id="BdgKqPEwnkstZ0_iGE3u-22" value="S1" style="text;html=1;align=center;verticalAlign=middle;resizable=0;points=[];autosize=1;fontSize=18;" vertex="1" parent="1">
          <mxGeometry x="357" y="782.5" width="40" height="30" as="geometry" />
        </mxCell>
        <mxCell id="BdgKqPEwnkstZ0_iGE3u-23" value="Si+2" style="text;html=1;align=center;verticalAlign=middle;resizable=0;points=[];autosize=1;fontSize=18;" vertex="1" parent="1">
          <mxGeometry x="730" y="782.5" width="50" height="30" as="geometry" />
        </mxCell>
        <mxCell id="BdgKqPEwnkstZ0_iGE3u-24" value="" style="shape=image;verticalLabelPosition=bottom;labelBackgroundColor=#ffffff;verticalAlign=top;aspect=fixed;imageAspect=0;image=data:image/png,iVBORw0KGgoAAAANSUhEUgAAAnsAAADhCAMAAACHiIOpAAADAFBMVEUAAAAAADMAAGYAAJkAAMwAAP8AMwAAMzMAM2YAM5kAM8wAM/8AZgAAZjMAZmYAZpkAZswAZv8AmQAAmTMAmWYAmZkAmcwAmf8AzAAAzDMAzGYAzJkAzMwAzP8A/wAA/zMA/2YA/5kA/8wA//8zAAAzADMzAGYzAJkzAMwzAP8zMwAzMzMzM2YzM5kzM8wzM/8zZgAzZjMzZmYzZpkzZswzZv8zmQAzmTMzmWYzmZkzmcwzmf8zzAAzzDMzzGYzzJkzzMwzzP8z/wAz/zMz/2Yz/5kz/8wz//9mAABmADNmAGZmAJlmAMxmAP9mMwBmMzNmM2ZmM5lmM8xmM/9mZgBmZjNmZmZmZplmZsxmZv9mmQBmmTNmmWZmmZlmmcxmmf9mzABmzDNmzGZmzJlmzMxmzP9m/wBm/zNm/2Zm/5lm/8xm//+ZAACZADOZAGaZAJmZAMyZAP+ZMwCZMzOZM2aZM5mZM8yZM/+ZZgCZZjOZZmaZZpmZZsyZZv+ZmQCZmTOZmWaZmZmZmcyZmf+ZzACZzDOZzGaZzJmZzMyZzP+Z/wCZ/zOZ/2aZ/5mZ/8yZ///MAADMADPMAGbMAJnMAMzMAP/MMwDMMzPMM2bMM5nMM8zMM//MZgDMZjPMZmbMZpnMZszMZv/MmQDMmTPMmWbMmZnMmczMmf/MzADMzDPMzGbMzJnMzMzMzP/M/wDM/zPM/2bM/5nM/8zM////AAD/ADP/AGb/AJn/AMz/AP//MwD/MzP/M2b/M5n/M8z/M///ZgD/ZjP/Zmb/Zpn/Zsz/Zv//mQD/mTP/mWb/mZn/mcz/mf//zAD/zDP/zGb/zJn/zMz/zP///wD//zP//2b//5n//8z///8AAACfn59oaGhWVlaQkJBcXFy8vLw9PT0kJCTIyMgbGxtqamqYmJhdXV0oKCiZmZlVVVXNzc0XFxcWFhagoKBzc3PFxcVNTU23t7chISFmZmZJSUmcnJwSEhIyMjK6uroxMTG7u7stLS2NjY0lJSVwcHA8PDwLCwuVWg5VAAAA2XRSTlP///////////////////////////////////////////////////////////////////////////////////////////////////////////////////////////////////////////////////////////////////////////////////////////////////////////////////////////////////////////////////////////////////////////////////////////////8A9EGGvAAAAAlwSFlzAAAOxAAADsQBlSsOGwAAFfNJREFUeJztnTuW47oRhnWOPQ4c+jjwTWYDPL69iNkD7+3YibYBd+Sgd4JOtJnejok3QIJEASiIAFV/MNOiKEoqfawHnrdvEukc3c7+AKSXFbFHOkvEHuksEXuks0Tskc4SsUc6S8Qe6SwRe6SzROyRzhKxBxefeeQoix59ZUEtQuyBxedbxKji6AkfpmPxCWgRYg+uKGULe+z5H6Vnge9GYi9D8VBCIXctvvp/R8QeqZXmhPsj9khtlA69xB5UnDOmgwhn88zcUXVIPOlOubwWG7Dl26s/tQnMI/GQTbdp5ofWIPZg4ostdZnL54ktpp24PspkaXdbHrtzri5hA778o7+0ZI8JP2ctMgv2jo1B7EG18KVMLKkzRe/ySB4V7S/L/R5thrmeuLrzlA24MoGJsewm7aNQPBSxB5U2sYFNI6gtLVpaRKh5jcY+hZ6hTZtg+U+7P/3klGp7Ivag0lFWez9jYg3b8mvMS7rzGo19BitzNyrvN998IA2fRyL2oFLhVFvY/GEDsUis7a9xcZloqm4/fb+Z3gxjAhN6D0TsAaVMbPuLdAebjryCRBWQXyDdM3QF6d7yIEz3ANkHsQeUMjEzIVc7PKZqC9PV+xLpni0mTMhV3s/6O+X+0ukesQeV8nDMhdyZe7WdLfWuH3JtQjebGkM2rbDsdI/YgypM90y7QpjcQAw+vNz9ZmoMJtuT1+leOgIQe0Apl2bzO9fQwrnX2DfrNv4Ly7SszF66x5hAUHRsiLuQq8YmftyrQexBZRtQdU1hG1pEL5p3s18ePen754U85/rneTaNTMoiCtBk9yKxB5NxeMLizPYVibjjVbvsJbrUZAcic3mGLHC5qfSVCZajVGtgyVWwQShZhZVUlLmIuK0x5KPwv/DhkYg9kCBNBq8lBIsQeyC9RKNxlhBqemIvKVFYkNtbC9KIkhCxl5RoLkgN/345YUzPI/aSWjKbmbxeIDEy9FZtFWKPdJaIPdJZIvZIZ4nYI50lYo90log90lki9khnidgrE5c6+1P0ojJrEHvZkg2rt2nR8h9gmNq1VWENYi9LaqkHz8CcLUdetdtjxxpQ/Ii9DLEp2o/ExVSh1/N+whqRb80ZdJIysQcVZwejhkSf70vRx49GlQHpI/ZgOiRPnvBKw6yStxrIGsQeSIstk27tdcaXcsA3BViD2IOIgXzaq7g+LGsQe2nBmVpu9rYfpQPBrcET1iD2kuKJ5TNLzx1TkHhrzz22BrGXUuZ4+YvDl2eNY/iIvYSyPdml4cuduHJoPWIvoXyUrjyvKNsaR7ASe8cq2KnvwpPacK1B7B2qaJNIftX+XVYyHXzfGsTekQopuui2pqXW2COW2DtSafS8Zr3ByqyxG3WJvQMV+69LRl10axB7+6og6IJRt8oa0cPE3r4qALqg48O3BrG3qyp+Luf4Kq0RO0rs7aoKn4aOL75PauvdUwsLDaW4NYi9XdXRU/VbHclubQQ4iviudYuYR61B7O2J10XNZo4vvoFM621lqq0ReTmxt6fajK1d0I1/ro5D7o7bJPZ2VO23LlVtIFhje4zY21E1OpVRqi81sQaxt6PqurFRwseZDV+czeY9zFEuPzZHXyyhunKKWYPY21H9QKgW7HE23ewOvhPTOw2Io3qHVbGN2Xy7YRe99exFrkDs7aienDatLHbnZLthvNrkx+4gyuXGetjstbAGsRcXQsRs09qr56jb7QMns4mtObpggs4ehjWIPahQrN2EvWDTaLlvY7CHtPjcHLoiClQY1pg2h4i9uBCq1DaFrt691uxfrneMd3tIM29fSzS1sQaxF1ev7KmZ2S6oqu3MXbpnkkDsdyX2nqde2VMubSloVRDU3biz2TDebSOPKmLvmULIcNqwZ/yc3bicO9j0YfR0j9h7qnplL0z33L7xTD8pi17sdK+RNYi9uDplTy/EY+hipsSYOWee+5sRGuTCtyX2nqdO21hM655B0ETemTG33OesHiKK2veeqTbWrpZuQ1b7qtqZmOyms0B1YHmInu8Re09UvbVb9Oe6CjbYz2K1twX+xh/Un/tMIYwawmcPv4IFqu04ltdYrhWu6kqhRamB3mgMVRNrWPZeZ6VqmLobtywKi9MWdG48bjlnMdNXUAtrV0g0oMAW2W6i2m+TGDPP0Zskh1Zvc4VkaYt7yQw1nysE2ETidVSZ4lxqqtAz5ki+yAYRMNWNmr/Y4qN1i6nGX71qYzkxo+hOJZ6L2+a3qy0GVGmN2IvX7XsEn1MBPqZrod2SGGepxPElrLFpW6Zy16rgVmc3PYzpam6vhTW2/RoEn1U+QPNNzU+8WKUhVHA7MWON7VwNoUifGmTPxNdQPkGSvds0X8/tFViDa2vs5XHR/lyCTyt7zW5lbfSp2TviVk95u1z4eMIa8bEE1NailL+F082Yu8U8Ic4Zm+dpullNUv7jxeWyRjBiW2NnHEteufv4/Lz/WvTzp/j3/vn5yPqMHSszyXHWviHevYI4CZgga2b7fk48s8BpT8aenV5hDUgbixEUvsdC3c+Ift2vwV88zuwFO8/aGOM3NXSTBC77xVwRi4lgpjV8h5yz/h6k3H18Rrmz/H0mv0z/Wu2Ko39QFe10lHM/rWftyqAr3gfFdVl+UQBEtcb+2NEkfJ/3I/CULuD9nLkXS0s3Eo4YFpDctMWNtaeaH1phh7yMGdZFfWtM+9ZQjxLWOBq37JW721eHLk+keffPxxKB7zLv854Znj4zGUz+dvFT+OwWIatyeS2wc8IA0LfGXtq5vItaFubYGodj5i18m+zPI2+pLTYvfPg+cXj6lm+/mDPhy7iYJSbXwSv9ZSXAc+v2Es1fxe0Bt0YiABzP13CQBx/2Ycn7tV/SPlwRMnrkFUgBfixxnxcWGPzIj+BL+enCt1vTsPceSWsk5gpJ+MRVfNvfLXiJt7f4jV11MPAMHfiZwavmqV2c3RMvfVc8a6TmqfHl9piCFgPr9CA8Pe7Du768uWHZ9C0vqKpMasTz3zzbGsUx99sVK8bNmkwPCpOhb9CsT6wAkEcGm+Ct//K3z/1IuGLJ3M0Tz+7wOrJGen7uHLRM3/PdmHGUI8bdknEV0Nd0AJ4SuELandEjOvt2iqSDWUBJ9mxLvTCTdmK5Pkz7yvHgK5s4uvUO286obsCTMgvVHytiDdWe57qVIxnkvq9Mscf8pmntwfJzt+IXnquc8BlobW4WVoayjaL8YzWRyP2Ob7SNNXS6GLYtb33oLnzJOtfrDq4gaEj4KuYPhC/lgVdJ/shn6fiWWFtj92uwzWV27uFU+57fN14TOXW0Hgi+uiG0vrnVZivcXLXncaV8D6i1NY6zkbWr41H4jtnT4VzpH3UtdRq+0pc/XdnjRkN5g93kHWzWbOzT5TntOL9wBEu6JWnVFhMd+gdYh0p3EN/+9q+6lhJVcYxScLDasdvcGF8PrJq3sahTRe6QwBqwNr7QM8Y8H3gNtPs/FvbqGulGgg9hrqhbFVQnzL27PCeRGYR+ju08OFLqVVD2ULi5D9PIjDJNmek4izOi78nyuyTK0Eu+DsjeA8dljQJfPDfOlsjP3VDmMQKuk03qeFA35eQigR03WQyMPYVefZGqqt3ui11eWWdYLddhaEOZny9Fn18n5FrGP39Tb8DYQ0MGyX82FhZ6smg8nrPQuQR9R/gkdQQfiD2Z7OGESsRLNRPDa4ETrcoDO77vsD+2ZE2W0GsGhgWxd0d0Vp/dOz7UtVTUbW8m1o7n+AJ2iuKBf4FwTSAIe9JXYSVpj+4dH+paKsMvCuRZo9AwnglCa0DYw6UFleQG4rjeafBVgTxrFH8Tr3UlqHUB7ElYEKPkvW/Hh1ZoKA3u+Lw5kTUjK+xF/IwRwB52kFSOD+96uEJnZWjH56xRZRfm9W07a6TZw3Z7nTs+dFSGdnweNDV28RF2ji/NHj4p+DTjqQEpAzs+JLe3w3CSvUcDUDp2fA1AGdjxOWtU2iUKcZK9zwacdOz4WmxNMOx2By5A4u1p5QXdJHstWkRa+FIcNfFRwwZdZw3EfSRdtZFirw0m3QbdJpgMG3QtJhh7N5v1vt21UuzJ8IhOSYtAjqI24XHQoOvCI8Itabd3cVdNsdfGQ/UadBt5qEGDLmLI/fZ287MeMMVeTjtwxoLn9z6bl7N2rIOvVjZo0HWuKrYLZHhq2hhetaHPTbD3gIdcMcZ/hs5JuPfZp5vhoHKWJhmUvS0teydOgNGJXtDVZybYE+keLOSqcV7QPXjh132qwImZHAkPByrpN7oUm9d/RLXYQo1RPDbeNoKn2AOne7P6KRhsgGSv7AEZEXsJZLE3YsLnZWiHVKlqOL2iywblBHvg2GimNfEJ9JN0VGy8v32ZP3NiI4N9UX3ykOwZaxybxTzLUo4vlz1wy/Js/B1sQdSe2Pvx413TR+z5ArOn/5/A7Om8DIk95+5m0NLEj37GUS3s/Xj7kH8Se76g7NkSIpnw2ZXjwexB3BPLZK+jRhbBnnZ9zdgbstD12AMtDAlmz/zRgL0bjL3ffvvP/746kGLvx9v719d//4C7p1dgb8VK4vTUVKhNI8sxe+C0bLZVH/A3uf/8599/dCdiz5NNFGAZA0tt3LqJ4QD2YKVGJnufXbL3J7Hn5LEHODu9WEY37PXp9/5N7DnZUSwg9tJLBJWwl5fvAdtc+2SPYq6nrJgL+IaZ7L1OnSubWXKGElyfvZxaA7JaRmatAWYvt32vO/aojWWjjDYWDgnLJW0szfo1+mFPd2xQ27IvYNuyELAayWtbfoX+XNOrQeyFgrPnesuOvmZunxqYPcMccCeejmaqvb/TWIKowOwt307pOOnLHUsAH+ukoBt9/F4GTnljqEo+zdmCjqGCLW7J27En+1TA+4/VsRcfw50e2Z0UeOyo3PUBvv3siKVG4KgOvifzFlY9Modzo0D2svIyvreX4FZ1Y+ZZ9A4DVtiHF24TG4cscz1rZE1j2VP2mPkmU8Ory9z4lsDHGwWDRPPUfEWmNVYoe65QozmStaVG/Kes/4GJPV+4cyS3Fztnbni36xIgL/xor9rgok/QvHFV5SqYG96mEbjTKZK0JkYo1DUxtssKJdcCaoFJZcsyd4QsN5GpNcW26ep/HpySd2laC8iTHycrv0LJWkBNgm5VCwuf7Ww80aSj52iLRo+ZyydvTLR0F+6kQmugfYgh3PrviLMqVNEaaK3WfqzwpboxhaspwaY5W08XENWuaOzJ6Xbw1GLtx9/fPr7Sp/Wirzc5rOf94+vr4+33Bms/wtcd7XDNWz1uQc9G15TZTr3bLIJvaYNLg6D737/K33IU/MwEFqm//qGPVjaz+It924MDrvWt/Z1pStbQMef+RMIH7mFZC3+t7z/17zgKfh8+e7+7zLpqrW93GXdvA/Y4kDtaYe9xUNO4p1d+0UFV/6Gd4fLkpB8WXh19j4O/uJ9yCPw+3jz4/m2tUdHG5zlNz+2B93bBK3WrN7VSLs32oDEDmx5HIxnUvrHs8qiOj89/fL37v+Z7z8nfVwDe8ll3tmXJk9cu4VeA0D2t8KKu3MyvpsVQujRux6gqh2fc4Hyb/AhcIJQOJCdl9xC/Tt1f+CHNNAJrjeKI4N3NvtsbcC8/5dJsyGWbdE+uilSxX2ijvfxWv2xnte/K4UnJIbX1e/l5M9jCfbGevodp9bVW6Z4tenW6Z9xfRdaG2bEWONG1Y+kk/K65e1MP3+WTwRakJcEk2EYyew9TzH1H632oGaQajpMWsLmmFfEshw6u2wix3Ni4iq+P9x/hD31u/F3fDvJ+kCzGFucquCvD7XODl8P2rJc5GgZ8CNuG6wrWpHmzaWiRTSuu2mXF6CGWG3GKN/Ht7RQHuNwGm8+hPoZo4nOrEnrW4NnwBduGr7qaYOypSFmf8j3qyxZbwc7TzNzu8qrG4K69uQofpKh7ULZsfvenArjFTry99+nc/Knv0BrJlS9CLb7B/b22BpA9BU0tfBhX8WaEBIubr0xSx07+/R3V8VUiAKiuLIR33n/TvXcNzvrw0QuhSa994ck/eWtTIHsqWNbWG3eE0F1TwcLl36/FgqxEHyFBsNDABy7Qxd8r8lYr/gNrZMDn5y6RtYKg7GHAp9Cr5LeqgoUr6/auvESsfUNjgeAFv3ag+5FRZwdfhQO7K0PaIjk0mD1FTg181egJrw394tWqhi/zArFYaBgUfnChMAPD5eQPgdzuJcUFS78Mh2yjstp/JGYNOHsavtIeiUc1uzLVy8x1K1QJX9HLDwC0HL4JbrTM2qn2wLt4PnGFongefp3kxjZrPKPWyGDPwFeUr6kyozJhZFOb+RR771YBX8WLZTmQAKhEb1WFzOoLCfp2f4qNY4xbI4c9DV9JsfCJgd6zxcoLjowNr/b09YGF4FtuhI1qbY0FsGjo3R7f85JZ7BXDp9CrLTOertJBgDl7rSWVyNyOiEOpVay21hAzFMRIXTNjhrM5AuRunpTHnurgyPVfOtUbDr0Dsx2/qn6SelwytXt/f5dZnZZKAbXEczIJbPL2se+lcNNLYkxzZJWQfWtksmeCZw5H5iU9zolMqcSDVYTqznVgjd3VUA6skcueKRrAKGny+pyOC1Bu3EWNt90J1RrZ7JmkD0aTIW+wKsMXqDWr6OQRhWmNAvYcUPdjoh72xCHjrRWHreOrSrxLkyeU3LPPnpiyRgl7zvWJxG8Hq8f9lzun6E06khiTlYaKpXZ1uohA31OQlzirjD1Tuiq07iv+Ho9PB964mV4gOf/tAD/OKodtDSWGYo1C9kL6FIK/7veFuV+ro5cgT0jaMx571TId55NXM142UxjWKGbPT+d2NX60DcTZLFe6Nc2pnC9/ihVgwIvfNhU4E0N6OzZtrDHnWKOCve8gqYuBdxWX54sr2uwSw7Hm1JNUMSm5+C0Vbc4aOa63jr1v4f1i/F0n1A4lN6L71I8BVDV7Ukt18Xm/30XKd19XHqSna5AF/3DYI/Wk5C7KnYjYG01ySVWd3asdRbiaNCUKn29ZcdzmIYIusTeW5JhNJnsMJGTiGBNtabLRg6kWDpHzn/1BASL2hpJelEHNj9cd9Xz2EPx+1kw+BBF7I8lb8uPbjozzVlz1F//tX8TeQOK6i1RDx8yaW4H7G2cQF7E3kIxHY3btrW83ysaAibC115NE7I0jM34kTPfYbZPunfcRs0TsjSOT0JkgqxYiNGOVbMgl9kjYcgndzaV7ur3FX4JrlHSP2BtHZpgKM/+L/xhjo6Z7xN440uyxWe+nJNI9xoQ3FEusCgQ5U95wiF4NYm8giVgrVrvUJYdAUSyOZDazEbO0VWDuZlBXQsTeONI7FJogO9/U7oU3W+7yb/twBBF7I4m7Zj3zyA7a46v/+xexN5oGKmQTIvZG00CFbELE3mgap+04JWJvMD15MlpLEXtDSY8MvUbQJfZIZ4nYI50lYo90log90lki9khnidgjnSVij3SWiD3SWSL2SGeJ2COdJWKPdJaIPdJZIvZIZ4nYI52l/wOuVXMSMcJZmQAAAABJRU5ErkJggg==;" vertex="1" parent="1">
          <mxGeometry x="95" y="490" width="635" height="225" as="geometry" />
        </mxCell>
      </root>
    </mxGraphModel>
  </diagram>
</mxfile>
